<?xml version="1.0" encoding="UTF-8" standalone="no"?>
<!DOCTYPE svg PUBLIC "-//W3C//DTD SVG 1.1//EN"
 "http://www.w3.org/Graphics/SVG/1.1/DTD/svg11.dtd">
<!-- Generated by graphviz version 2.34.0 (20130907.0228)
 -->
<!-- Title: %3 Pages: 1 -->
<svg width="3381pt" height="268pt"
 viewBox="0.00 0.00 3381.00 268.00" xmlns="http://www.w3.org/2000/svg" xmlns:xlink="http://www.w3.org/1999/xlink">
<g id="graph0" class="graph" transform="scale(1 1) rotate(0) translate(4 264)">
<title>%3</title>
<polygon fill="white" stroke="white" points="-4,4 -4,-264 3377,-264 3377,4 -4,4"/>
<!-- org_liveSense_framework_solr -->
<g id="node1" class="node"><title>org_liveSense_framework_solr</title>
<polygon fill="yellow" stroke="black" points="1645.5,-223 1645.5,-259 1880.5,-259 1880.5,-223 1645.5,-223"/>
<text text-anchor="middle" x="1763" y="-248.1" font-family="Arial" font-size="8.00">liveSense :: Framework :: Apache Solr Indexer/Search engine</text>
<polyline fill="none" stroke="black" points="1645.5,-241 1880.5,-241 "/>
<text text-anchor="middle" x="1763" y="-230.1" font-family="Arial" font-size="8.00">org.liveSense.framework.solr(2&#45;SNAPSHOT)</text>
</g>
<!-- lucene_queries -->
<g id="node2" class="node"><title>lucene_queries</title>
<polygon fill="green" stroke="black" points="2735.5,-149 2735.5,-185 2880.5,-185 2880.5,-149 2735.5,-149"/>
<text text-anchor="middle" x="2808" y="-174.1" font-family="Arial" font-size="8.00">Apache Lucene :: Queries</text>
<polyline fill="none" stroke="black" points="2735.5,-167 2880.5,-167 "/>
<text text-anchor="middle" x="2808" y="-156.1" font-family="Arial" font-size="8.00">lucene&#45;queries(4.0.0.1&#45;SNAPSHOT)</text>
</g>
<!-- org_liveSense_framework_solr&#45;&gt;lucene_queries -->
<g id="edge1" class="edge"><title>org_liveSense_framework_solr&#45;&gt;lucene_queries</title>
<path fill="none" stroke="yellow" d="M1880.69,-239.452C2060.78,-237.268 2415.5,-227.658 2725.16,-185.976"/>
<polygon fill="yellow" stroke="yellow" points="2725.79,-189.422 2735.23,-184.607 2724.85,-182.486 2725.79,-189.422"/>
</g>
<!-- woodstox_core_asl -->
<g id="node3" class="node"><title>woodstox_core_asl</title>
<polygon fill="green" stroke="black" points="-0.5,-149 -0.5,-185 108.5,-185 108.5,-149 -0.5,-149"/>
<text text-anchor="middle" x="54" y="-174.1" font-family="Arial" font-size="8.00">Woodstox XML&#45;processor</text>
<polyline fill="none" stroke="black" points="-0.5,-167 108.5,-167 "/>
<text text-anchor="middle" x="54" y="-156.1" font-family="Arial" font-size="8.00">woodstox&#45;core&#45;asl(4.2.0)</text>
</g>
<!-- org_liveSense_framework_solr&#45;&gt;woodstox_core_asl -->
<g id="edge2" class="edge"><title>org_liveSense_framework_solr&#45;&gt;woodstox_core_asl</title>
<path fill="none" stroke="yellow" d="M1645.4,-239.204C1321.71,-236.522 422.234,-225.617 129,-186 125.579,-185.538 122.086,-184.986 118.571,-184.368"/>
<polygon fill="yellow" stroke="yellow" points="119.125,-180.91 108.646,-182.467 117.809,-187.785 119.125,-180.91"/>
</g>
<!-- lucene_suggest -->
<g id="node4" class="node"><title>lucene_suggest</title>
<polygon fill="green" stroke="black" points="3073.5,-149 3073.5,-185 3220.5,-185 3220.5,-149 3073.5,-149"/>
<text text-anchor="middle" x="3147" y="-174.1" font-family="Arial" font-size="8.00">Apache Lucene :: Suggest</text>
<polyline fill="none" stroke="black" points="3073.5,-167 3220.5,-167 "/>
<text text-anchor="middle" x="3147" y="-156.1" font-family="Arial" font-size="8.00">lucene&#45;suggest(4.0.0.1&#45;SNAPSHOT)</text>
</g>
<!-- org_liveSense_framework_solr&#45;&gt;lucene_suggest -->
<g id="edge3" class="edge"><title>org_liveSense_framework_solr&#45;&gt;lucene_suggest</title>
<path fill="none" stroke="yellow" d="M1880.73,-237.708C2152.56,-232.003 2818.64,-215.541 3063.41,-185.901"/>
<polygon fill="yellow" stroke="yellow" points="3063.86,-189.373 3073.35,-184.661 3062.99,-182.427 3063.86,-189.373"/>
</g>
<!-- org_apache_httpcomponents_httpcore -->
<g id="node5" class="node"><title>org_apache_httpcomponents_httpcore</title>
<polygon fill="green" stroke="black" points="1868,-149 1868,-185 2038,-185 2038,-149 1868,-149"/>
<text text-anchor="middle" x="1953" y="-174.1" font-family="Arial" font-size="8.00">Apache HttpCore OSGi bundle</text>
<polyline fill="none" stroke="black" points="1868,-167 2038,-167 "/>
<text text-anchor="middle" x="1953" y="-156.1" font-family="Arial" font-size="8.00">org.apache.httpcomponents.httpcore(4.1.2)</text>
</g>
<!-- org_liveSense_framework_solr&#45;&gt;org_apache_httpcomponents_httpcore -->
<g id="edge4" class="edge"><title>org_liveSense_framework_solr&#45;&gt;org_apache_httpcomponents_httpcore</title>
<path fill="none" stroke="yellow" d="M1808.03,-222.937C1835.14,-212.663 1869.84,-199.511 1898.5,-188.652"/>
<polygon fill="yellow" stroke="yellow" points="1899.86,-191.882 1907.97,-185.065 1897.38,-185.336 1899.86,-191.882"/>
</g>
<!-- org_apache_httpcomponents_httpclient -->
<g id="node6" class="node"><title>org_apache_httpcomponents_httpclient</title>
<polygon fill="green" stroke="black" points="546.5,-149 546.5,-185 719.5,-185 719.5,-149 546.5,-149"/>
<text text-anchor="middle" x="633" y="-174.1" font-family="Arial" font-size="8.00">Apache HttpClient OSGi bundle</text>
<polyline fill="none" stroke="black" points="546.5,-167 719.5,-167 "/>
<text text-anchor="middle" x="633" y="-156.1" font-family="Arial" font-size="8.00">org.apache.httpcomponents.httpclient(4.1.2)</text>
</g>
<!-- org_liveSense_framework_solr&#45;&gt;org_apache_httpcomponents_httpclient -->
<g id="edge5" class="edge"><title>org_liveSense_framework_solr&#45;&gt;org_apache_httpcomponents_httpclient</title>
<path fill="none" stroke="yellow" d="M1645.49,-238.947C1455.09,-236.113 1067.32,-225.662 729.505,-185.955"/>
<polygon fill="yellow" stroke="yellow" points="729.868,-182.474 719.525,-184.772 729.044,-189.425 729.868,-182.474"/>
</g>
<!-- lucene_queryparser -->
<g id="node7" class="node"><title>lucene_queryparser</title>
<polygon fill="green" stroke="black" points="2352,-149 2352,-185 2514,-185 2514,-149 2352,-149"/>
<text text-anchor="middle" x="2433" y="-174.1" font-family="Arial" font-size="8.00">Apache Lucene :: Query Parsers</text>
<polyline fill="none" stroke="black" points="2352,-167 2514,-167 "/>
<text text-anchor="middle" x="2433" y="-156.1" font-family="Arial" font-size="8.00">lucene&#45;queryparser(4.0.0.1&#45;SNAPSHOT)</text>
</g>
<!-- org_liveSense_framework_solr&#45;&gt;lucene_queryparser -->
<g id="edge6" class="edge"><title>org_liveSense_framework_solr&#45;&gt;lucene_queryparser</title>
<path fill="none" stroke="yellow" d="M1880.63,-232.67C1995.7,-224.667 2176.06,-209.91 2341.27,-186.173"/>
<polygon fill="yellow" stroke="yellow" points="2342.24,-189.57 2351.63,-184.67 2341.23,-182.642 2342.24,-189.57"/>
</g>
<!-- org_apache_commons_io -->
<g id="node8" class="node"><title>org_apache_commons_io</title>
<polygon fill="green" stroke="black" points="2056,-149 2056,-185 2176,-185 2176,-149 2056,-149"/>
<text text-anchor="middle" x="2116" y="-174.1" font-family="Arial" font-size="8.00">Apache Commons IO Bundle</text>
<polyline fill="none" stroke="black" points="2056,-167 2176,-167 "/>
<text text-anchor="middle" x="2116" y="-156.1" font-family="Arial" font-size="8.00">org.apache.commons.io(1.4)</text>
</g>
<!-- org_liveSense_framework_solr&#45;&gt;org_apache_commons_io -->
<g id="edge7" class="edge"><title>org_liveSense_framework_solr&#45;&gt;org_apache_commons_io</title>
<path fill="none" stroke="yellow" d="M1861.26,-222.999C1913.53,-213.553 1979.07,-201.075 2045.97,-186.164"/>
<polygon fill="yellow" stroke="yellow" points="2046.86,-189.552 2055.85,-183.946 2045.32,-182.722 2046.86,-189.552"/>
</g>
<!-- org_apache_commons_fileupload -->
<g id="node9" class="node"><title>org_apache_commons_fileupload</title>
<polygon fill="green" stroke="black" points="906.5,-149 906.5,-185 1059.5,-185 1059.5,-149 906.5,-149"/>
<text text-anchor="middle" x="983" y="-174.1" font-family="Arial" font-size="8.00">Commons FileUpload</text>
<polyline fill="none" stroke="black" points="906.5,-167 1059.5,-167 "/>
<text text-anchor="middle" x="983" y="-156.1" font-family="Arial" font-size="8.00">org.apache.commons.fileupload(1.2.2)</text>
</g>
<!-- org_liveSense_framework_solr&#45;&gt;org_apache_commons_fileupload -->
<g id="edge8" class="edge"><title>org_liveSense_framework_solr&#45;&gt;org_apache_commons_fileupload</title>
<path fill="none" stroke="yellow" d="M1645.23,-235.458C1508.99,-229.154 1277.88,-215.232 1070,-186.034"/>
<polygon fill="yellow" stroke="yellow" points="1070.2,-182.527 1059.81,-184.587 1069.22,-189.457 1070.2,-182.527"/>
</g>
<!-- org_apache_geronimo_specs_geronimo_servlet_3_0_spec -->
<g id="node10" class="node"><title>org_apache_geronimo_specs_geronimo_servlet_3_0_spec</title>
<polygon fill="green" stroke="black" points="1078,-149 1078,-185 1308,-185 1308,-149 1078,-149"/>
<text text-anchor="middle" x="1193" y="-174.1" font-family="Arial" font-size="8.00">Servlet 3.0</text>
<polyline fill="none" stroke="black" points="1078,-167 1308,-167 "/>
<text text-anchor="middle" x="1193" y="-156.1" font-family="Arial" font-size="8.00">org.apache.geronimo.specs.geronimo&#45;servlet_3.0_spec(1.0)</text>
</g>
<!-- org_liveSense_framework_solr&#45;&gt;org_apache_geronimo_specs_geronimo_servlet_3_0_spec -->
<g id="edge9" class="edge"><title>org_liveSense_framework_solr&#45;&gt;org_apache_geronimo_specs_geronimo_servlet_3_0_spec</title>
<path fill="none" stroke="yellow" d="M1645.05,-226.49C1557.64,-216.296 1435.3,-201.65 1318.37,-186.168"/>
<polygon fill="yellow" stroke="yellow" points="1318.54,-182.659 1308.17,-184.812 1317.62,-189.598 1318.54,-182.659"/>
</g>
<!-- org_apache_commons_lang -->
<g id="node11" class="node"><title>org_apache_commons_lang</title>
<polygon fill="green" stroke="black" points="1326.5,-149 1326.5,-185 1453.5,-185 1453.5,-149 1326.5,-149"/>
<text text-anchor="middle" x="1390" y="-174.1" font-family="Arial" font-size="8.00">Commons Lang</text>
<polyline fill="none" stroke="black" points="1326.5,-167 1453.5,-167 "/>
<text text-anchor="middle" x="1390" y="-156.1" font-family="Arial" font-size="8.00">org.apache.commons.lang(2.6)</text>
</g>
<!-- org_liveSense_framework_solr&#45;&gt;org_apache_commons_lang -->
<g id="edge10" class="edge"><title>org_liveSense_framework_solr&#45;&gt;org_apache_commons_lang</title>
<path fill="none" stroke="yellow" d="M1658.18,-222.982C1602.78,-213.559 1533.44,-201.094 1463.43,-186.245"/>
<polygon fill="yellow" stroke="yellow" points="1464.06,-182.801 1453.55,-184.134 1462.6,-189.646 1464.06,-182.801"/>
</g>
<!-- lucene_spatial -->
<g id="node12" class="node"><title>lucene_spatial</title>
<polygon fill="green" stroke="black" points="138,-149 138,-185 282,-185 282,-149 138,-149"/>
<text text-anchor="middle" x="210" y="-174.1" font-family="Arial" font-size="8.00">Apache Lucene :: Spatial Strategies</text>
<polyline fill="none" stroke="black" points="138,-167 282,-167 "/>
<text text-anchor="middle" x="210" y="-156.1" font-family="Arial" font-size="8.00">lucene&#45;spatial(4.0.0.1&#45;SNAPSHOT)</text>
</g>
<!-- org_liveSense_framework_solr&#45;&gt;lucene_spatial -->
<g id="edge11" class="edge"><title>org_liveSense_framework_solr&#45;&gt;lucene_spatial</title>
<path fill="none" stroke="yellow" d="M1645.28,-238.447C1347.95,-234.085 571.21,-219.849 292.414,-186.016"/>
<polygon fill="yellow" stroke="yellow" points="292.665,-182.52 282.308,-184.752 291.797,-189.466 292.665,-182.52"/>
</g>
<!-- org_eclipse_jetty_aggregate_jetty_all_server -->
<g id="node13" class="node"><title>org_eclipse_jetty_aggregate_jetty_all_server</title>
<polygon fill="green" stroke="black" points="300,-149 300,-185 528,-185 528,-149 300,-149"/>
<text text-anchor="middle" x="414" y="-174.1" font-family="Arial" font-size="8.00">Jetty :: Aggregate :: All Server</text>
<polyline fill="none" stroke="black" points="300,-167 528,-167 "/>
<text text-anchor="middle" x="414" y="-156.1" font-family="Arial" font-size="8.00">org.eclipse.jetty.aggregate.jetty&#45;all&#45;server(8.1.9.v20130131)</text>
</g>
<!-- org_liveSense_framework_solr&#45;&gt;org_eclipse_jetty_aggregate_jetty_all_server -->
<g id="edge12" class="edge"><title>org_liveSense_framework_solr&#45;&gt;org_eclipse_jetty_aggregate_jetty_all_server</title>
<path fill="none" stroke="yellow" d="M1645.23,-238.776C1428.21,-235.647 950.419,-224.693 537.268,-185.958"/>
<polygon fill="yellow" stroke="yellow" points="537.499,-182.464 527.214,-185.008 536.841,-189.433 537.499,-182.464"/>
</g>
<!-- org_apache_commons_codec -->
<g id="node14" class="node"><title>org_apache_commons_codec</title>
<polygon fill="green" stroke="black" points="2194,-149 2194,-185 2334,-185 2334,-149 2194,-149"/>
<text text-anchor="middle" x="2264" y="-174.1" font-family="Arial" font-size="8.00">Commons Codec</text>
<polyline fill="none" stroke="black" points="2194,-167 2334,-167 "/>
<text text-anchor="middle" x="2264" y="-156.1" font-family="Arial" font-size="8.00">org.apache.commons.codec(1.6.0)</text>
</g>
<!-- org_liveSense_framework_solr&#45;&gt;org_apache_commons_codec -->
<g id="edge13" class="edge"><title>org_liveSense_framework_solr&#45;&gt;org_apache_commons_codec</title>
<path fill="none" stroke="yellow" d="M1880.79,-228.016C1963.12,-218.913 2075.76,-205.007 2183.76,-186.134"/>
<polygon fill="yellow" stroke="yellow" points="2184.62,-189.536 2193.86,-184.352 2183.4,-182.642 2184.62,-189.536"/>
</g>
<!-- lucene_analyzers_common -->
<g id="node15" class="node"><title>lucene_analyzers_common</title>
<polygon fill="green" stroke="black" points="1471.5,-149 1471.5,-185 1658.5,-185 1658.5,-149 1471.5,-149"/>
<text text-anchor="middle" x="1565" y="-174.1" font-family="Arial" font-size="8.00">Apache Lucene :: Analyzers :: Common</text>
<polyline fill="none" stroke="black" points="1471.5,-167 1658.5,-167 "/>
<text text-anchor="middle" x="1565" y="-156.1" font-family="Arial" font-size="8.00">lucene&#45;analyzers&#45;common(4.0.0.1&#45;SNAPSHOT)</text>
</g>
<!-- org_liveSense_framework_solr&#45;&gt;lucene_analyzers_common -->
<g id="edge14" class="edge"><title>org_liveSense_framework_solr&#45;&gt;lucene_analyzers_common</title>
<path fill="none" stroke="yellow" d="M1716.08,-222.937C1687.7,-212.618 1651.34,-199.397 1621.41,-188.511"/>
<polygon fill="yellow" stroke="yellow" points="1622.52,-185.193 1611.93,-185.065 1620.13,-191.772 1622.52,-185.193"/>
</g>
<!-- org_ops4j_pax_logging_pax_logging_api -->
<g id="node16" class="node"><title>org_ops4j_pax_logging_pax_logging_api</title>
<polygon fill="green" stroke="black" points="1676.5,-149 1676.5,-185 1849.5,-185 1849.5,-149 1676.5,-149"/>
<text text-anchor="middle" x="1763" y="-174.1" font-family="Arial" font-size="8.00">OPS4J Pax Logging &#45; API</text>
<polyline fill="none" stroke="black" points="1676.5,-167 1849.5,-167 "/>
<text text-anchor="middle" x="1763" y="-156.1" font-family="Arial" font-size="8.00">org.ops4j.pax.logging.pax&#45;logging&#45;api(1.7.0)</text>
</g>
<!-- org_liveSense_framework_solr&#45;&gt;org_ops4j_pax_logging_pax_logging_api -->
<g id="edge15" class="edge"><title>org_liveSense_framework_solr&#45;&gt;org_ops4j_pax_logging_pax_logging_api</title>
<path fill="none" stroke="yellow" d="M1763,-222.937C1763,-214.807 1763,-204.876 1763,-195.705"/>
<polygon fill="yellow" stroke="yellow" points="1766.5,-195.441 1763,-185.441 1759.5,-195.441 1766.5,-195.441"/>
</g>
<!-- org_apache_servicemix_bundles_guava -->
<g id="node17" class="node"><title>org_apache_servicemix_bundles_guava</title>
<polygon fill="green" stroke="black" points="2532.5,-149 2532.5,-185 2717.5,-185 2717.5,-149 2532.5,-149"/>
<text text-anchor="middle" x="2625" y="-174.1" font-family="Arial" font-size="8.00">Apache ServiceMix :: Bundles :: guava</text>
<polyline fill="none" stroke="black" points="2532.5,-167 2717.5,-167 "/>
<text text-anchor="middle" x="2625" y="-156.1" font-family="Arial" font-size="8.00">org.apache.servicemix.bundles.guava(11.0.0.1)</text>
</g>
<!-- org_liveSense_framework_solr&#45;&gt;org_apache_servicemix_bundles_guava -->
<g id="edge16" class="edge"><title>org_liveSense_framework_solr&#45;&gt;org_apache_servicemix_bundles_guava</title>
<path fill="none" stroke="yellow" d="M1880.54,-235.434C2028.08,-228.846 2289.02,-214.368 2522.46,-185.987"/>
<polygon fill="yellow" stroke="yellow" points="2523,-189.447 2532.5,-184.755 2522.15,-182.499 2523,-189.447"/>
</g>
<!-- lucene_core -->
<g id="node18" class="node"><title>lucene_core</title>
<polygon fill="green" stroke="black" points="3238.5,-149 3238.5,-185 3373.5,-185 3373.5,-149 3238.5,-149"/>
<text text-anchor="middle" x="3306" y="-174.1" font-family="Arial" font-size="8.00">Apache Lucene :: Core</text>
<polyline fill="none" stroke="black" points="3238.5,-167 3373.5,-167 "/>
<text text-anchor="middle" x="3306" y="-156.1" font-family="Arial" font-size="8.00">lucene&#45;core(4.0.0.1&#45;SNAPSHOT)</text>
</g>
<!-- org_liveSense_framework_solr&#45;&gt;lucene_core -->
<g id="edge17" class="edge"><title>org_liveSense_framework_solr&#45;&gt;lucene_core</title>
<path fill="none" stroke="yellow" d="M1880.53,-238.594C2176.9,-234.586 2950.21,-221.128 3228.04,-185.933"/>
<polygon fill="yellow" stroke="yellow" points="3228.65,-189.384 3238.11,-184.618 3227.74,-182.442 3228.65,-189.384"/>
</g>
<!-- lucene_grouping -->
<g id="node19" class="node"><title>lucene_grouping</title>
<polygon fill="green" stroke="black" points="738,-149 738,-185 888,-185 888,-149 738,-149"/>
<text text-anchor="middle" x="813" y="-174.1" font-family="Arial" font-size="8.00">Apache Lucene :: Grouping</text>
<polyline fill="none" stroke="black" points="738,-167 888,-167 "/>
<text text-anchor="middle" x="813" y="-156.1" font-family="Arial" font-size="8.00">lucene&#45;grouping(4.0.0.1&#45;SNAPSHOT)</text>
</g>
<!-- org_liveSense_framework_solr&#45;&gt;lucene_grouping -->
<g id="edge18" class="edge"><title>org_liveSense_framework_solr&#45;&gt;lucene_grouping</title>
<path fill="none" stroke="yellow" d="M1645.49,-238.207C1480.47,-234.451 1170.69,-222.875 898.097,-186.029"/>
<polygon fill="yellow" stroke="yellow" points="898.39,-182.537 888.008,-184.651 897.442,-189.472 898.39,-182.537"/>
</g>
<!-- lucene_highlighter -->
<g id="node20" class="node"><title>lucene_highlighter</title>
<polygon fill="green" stroke="black" points="2899,-149 2899,-185 3055,-185 3055,-149 2899,-149"/>
<text text-anchor="middle" x="2977" y="-174.1" font-family="Arial" font-size="8.00">Apache Lucene :: Highlighter</text>
<polyline fill="none" stroke="black" points="2899,-167 3055,-167 "/>
<text text-anchor="middle" x="2977" y="-156.1" font-family="Arial" font-size="8.00">lucene&#45;highlighter(4.0.0.1&#45;SNAPSHOT)</text>
</g>
<!-- org_liveSense_framework_solr&#45;&gt;lucene_highlighter -->
<g id="edge19" class="edge"><title>org_liveSense_framework_solr&#45;&gt;lucene_highlighter</title>
<path fill="none" stroke="yellow" d="M1880.63,-240.296C2084.2,-239.499 2515.32,-232.042 2888.7,-185.897"/>
<polygon fill="yellow" stroke="yellow" points="2889.4,-189.336 2898.89,-184.626 2888.54,-182.39 2889.4,-189.336"/>
</g>
<!-- lucene_queries&#45;&gt;lucene_core -->
<g id="edge20" class="edge"><title>lucene_queries&#45;&gt;lucene_core</title>
<path fill="none" stroke="green" d="M2843.32,-185.079C2859.79,-192.524 2879.92,-200.269 2899,-204 2969.01,-217.688 3150.13,-218.392 3220,-204 3234.75,-200.963 3250.08,-195.279 3263.64,-189.263"/>
<polygon fill="green" stroke="green" points="3265.11,-192.441 3272.72,-185.072 3262.18,-186.085 3265.11,-192.441"/>
</g>
<!-- stax2_api -->
<g id="node21" class="node"><title>stax2_api</title>
<polygon fill="#3182bd" stroke="black" points="6,-75 6,-111 78,-111 78,-75 6,-75"/>
<text text-anchor="middle" x="42" y="-100.1" font-family="Arial" font-size="8.00">Stax2 API</text>
<polyline fill="none" stroke="black" points="6,-93 78,-93 "/>
<text text-anchor="middle" x="42" y="-82.1" font-family="Arial" font-size="8.00">stax2&#45;api(3.1.1)</text>
</g>
<!-- woodstox_core_asl&#45;&gt;stax2_api -->
<g id="edge21" class="edge"><title>woodstox_core_asl&#45;&gt;stax2_api</title>
<path fill="none" stroke="green" d="M51.1562,-148.937C49.7865,-140.719 48.11,-130.66 46.5677,-121.406"/>
<polygon fill="green" stroke="green" points="50.0032,-120.729 44.9068,-111.441 43.0985,-121.88 50.0032,-120.729"/>
</g>
<!-- lucene_suggest&#45;&gt;lucene_core -->
<g id="edge22" class="edge"><title>lucene_suggest&#45;&gt;lucene_core</title>
<path fill="none" stroke="green" d="M3220.6,-167C3223.09,-167 3225.57,-167 3228.06,-167"/>
<polygon fill="green" stroke="green" points="3228.28,-170.5 3238.28,-167 3228.28,-163.5 3228.28,-170.5"/>
</g>
<!-- org_apache_httpcomponents_httpclient&#45;&gt;org_apache_httpcomponents_httpcore -->
<g id="edge24" class="edge"><title>org_apache_httpcomponents_httpclient&#45;&gt;org_apache_httpcomponents_httpcore</title>
<path fill="none" stroke="green" d="M674.032,-185.094C693.084,-192.542 716.282,-200.285 738,-204 859.678,-224.811 1727.35,-224.994 1849,-204 1867,-200.894 1886.01,-194.973 1902.78,-188.764"/>
<polygon fill="green" stroke="green" points="1904.29,-191.936 1912.37,-185.093 1901.78,-185.398 1904.29,-191.936"/>
</g>
<!-- org_apache_httpcomponents_httpclient&#45;&gt;org_ops4j_pax_logging_pax_logging_api -->
<g id="edge23" class="edge"><title>org_apache_httpcomponents_httpclient&#45;&gt;org_ops4j_pax_logging_pax_logging_api</title>
<path fill="none" stroke="green" d="M674.032,-185.094C693.084,-192.542 716.282,-200.285 738,-204 838.759,-221.233 1557.24,-221.233 1658,-204 1676.16,-200.895 1695.34,-194.974 1712.28,-188.765"/>
<polygon fill="green" stroke="green" points="1713.86,-191.91 1721.97,-185.094 1711.38,-185.365 1713.86,-191.91"/>
</g>
<!-- org_apache_servicemix_bundles_ehcache -->
<g id="node22" class="node"><title>org_apache_servicemix_bundles_ehcache</title>
<polygon fill="#3182bd" stroke="black" points="1098.5,-75 1098.5,-111 1287.5,-111 1287.5,-75 1098.5,-75"/>
<text text-anchor="middle" x="1193" y="-100.1" font-family="Arial" font-size="8.00">Apache ServiceMix :: Bundles :: ehcache</text>
<polyline fill="none" stroke="black" points="1098.5,-93 1287.5,-93 "/>
<text text-anchor="middle" x="1193" y="-82.1" font-family="Arial" font-size="8.00">org.apache.servicemix.bundles.ehcache(2.5.2.1)</text>
</g>
<!-- org_apache_httpcomponents_httpclient&#45;&gt;org_apache_servicemix_bundles_ehcache -->
<g id="edge25" class="edge"><title>org_apache_httpcomponents_httpclient&#45;&gt;org_apache_servicemix_bundles_ehcache</title>
<path fill="none" stroke="green" d="M719.56,-149.484C722.744,-148.967 725.898,-148.471 729,-148 851.813,-129.363 993.768,-113.697 1087.99,-104.118"/>
<polygon fill="green" stroke="green" points="1088.5,-107.584 1098.1,-103.095 1087.8,-100.62 1088.5,-107.584"/>
</g>
<!-- lucene_queryparser&#45;&gt;lucene_queries -->
<g id="edge26" class="edge"><title>lucene_queryparser&#45;&gt;lucene_queries</title>
<path fill="none" stroke="green" d="M2472,-185.09C2490.13,-192.536 2512.23,-200.28 2533,-204 2613.5,-218.414 2636.74,-219.692 2717,-204 2732.65,-200.94 2749.01,-195.178 2763.47,-189.097"/>
<polygon fill="green" stroke="green" points="2764.91,-192.288 2772.68,-185.079 2762.11,-185.872 2764.91,-192.288"/>
</g>
<!-- lucene_queryparser&#45;&gt;lucene_core -->
<g id="edge27" class="edge"><title>lucene_queryparser&#45;&gt;lucene_core</title>
<path fill="none" stroke="green" d="M2472,-185.09C2490.13,-192.536 2512.23,-200.28 2533,-204 2608.14,-217.455 3145.24,-219.4 3220,-204 3234.75,-200.963 3250.08,-195.279 3263.64,-189.263"/>
<polygon fill="green" stroke="green" points="3265.11,-192.441 3272.72,-185.072 3262.18,-186.085 3265.11,-192.441"/>
</g>
<!-- org_apache_commons_fileupload&#45;&gt;org_apache_commons_io -->
<g id="edge28" class="edge"><title>org_apache_commons_fileupload&#45;&gt;org_apache_commons_io</title>
<path fill="none" stroke="green" d="M1019.96,-185.084C1037.16,-192.53 1058.17,-200.274 1078,-204 1182.83,-223.694 1933.94,-227.43 2038,-204 2051.28,-201.009 2064.96,-195.482 2077.08,-189.595"/>
<polygon fill="green" stroke="green" points="2078.68,-192.707 2086.01,-185.059 2075.51,-186.466 2078.68,-192.707"/>
</g>
<!-- org_apache_commons_fileupload&#45;&gt;org_apache_geronimo_specs_geronimo_servlet_3_0_spec -->
<g id="edge29" class="edge"><title>org_apache_commons_fileupload&#45;&gt;org_apache_geronimo_specs_geronimo_servlet_3_0_spec</title>
<path fill="none" stroke="green" d="M1059.7,-167C1062.36,-167 1065.01,-167 1067.67,-167"/>
<polygon fill="green" stroke="green" points="1067.92,-170.5 1077.92,-167 1067.92,-163.5 1067.92,-170.5"/>
</g>
<!-- lucene_spatial&#45;&gt;lucene_queries -->
<g id="edge30" class="edge"><title>lucene_spatial&#45;&gt;lucene_queries</title>
<path fill="none" stroke="green" d="M244.914,-185.078C261.192,-192.522 281.106,-200.268 300,-204 365.866,-217.011 2651.11,-216.883 2717,-204 2732.65,-200.94 2749.01,-195.178 2763.47,-189.097"/>
<polygon fill="green" stroke="green" points="2764.91,-192.288 2772.68,-185.079 2762.11,-185.872 2764.91,-192.288"/>
</g>
<!-- lucene_spatial&#45;&gt;lucene_core -->
<g id="edge31" class="edge"><title>lucene_spatial&#45;&gt;lucene_core</title>
<path fill="none" stroke="green" d="M244.914,-185.078C261.192,-192.522 281.106,-200.268 300,-204 379.573,-219.719 3140.56,-220.364 3220,-204 3234.75,-200.963 3250.08,-195.279 3263.64,-189.263"/>
<polygon fill="green" stroke="green" points="3265.11,-192.441 3272.72,-185.072 3262.18,-186.085 3265.11,-192.441"/>
</g>
<!-- org_eclipse_jetty_aggregate_jetty_all_server&#45;&gt;org_apache_geronimo_specs_geronimo_servlet_3_0_spec -->
<g id="edge34" class="edge"><title>org_eclipse_jetty_aggregate_jetty_all_server&#45;&gt;org_apache_geronimo_specs_geronimo_servlet_3_0_spec</title>
<path fill="none" stroke="green" d="M465.659,-185.014C489.75,-192.495 519.003,-200.288 546,-204 658.937,-219.529 946.033,-219.31 1059,-204 1082.85,-200.767 1108.46,-194.437 1130.83,-187.914"/>
<polygon fill="green" stroke="green" points="1131.96,-191.231 1140.54,-185.014 1129.95,-184.524 1131.96,-191.231"/>
</g>
<!-- org_eclipse_jetty_aggregate_jetty_all_server&#45;&gt;org_ops4j_pax_logging_pax_logging_api -->
<g id="edge37" class="edge"><title>org_eclipse_jetty_aggregate_jetty_all_server&#45;&gt;org_ops4j_pax_logging_pax_logging_api</title>
<path fill="none" stroke="green" d="M465.659,-185.014C489.75,-192.495 519.003,-200.288 546,-204 668.404,-220.831 1536.21,-224.83 1658,-204 1676.16,-200.895 1695.34,-194.974 1712.28,-188.765"/>
<polygon fill="green" stroke="green" points="1713.86,-191.91 1721.97,-185.094 1711.38,-185.365 1713.86,-191.91"/>
</g>
<!-- org_apache_geronimo_specs_geronimo_jta_1_1_spec -->
<g id="node23" class="node"><title>org_apache_geronimo_specs_geronimo_jta_1_1_spec</title>
<polygon fill="#3182bd" stroke="black" points="628,-75 628,-111 850,-111 850,-75 628,-75"/>
<text text-anchor="middle" x="739" y="-100.1" font-family="Arial" font-size="8.00">geronimo&#45;jta_1.1_spec</text>
<polyline fill="none" stroke="black" points="628,-93 850,-93 "/>
<text text-anchor="middle" x="739" y="-82.1" font-family="Arial" font-size="8.00">org.apache.geronimo.specs.geronimo&#45;jta_1.1_spec(1.1.1)</text>
</g>
<!-- org_eclipse_jetty_aggregate_jetty_all_server&#45;&gt;org_apache_geronimo_specs_geronimo_jta_1_1_spec -->
<g id="edge32" class="edge"><title>org_eclipse_jetty_aggregate_jetty_all_server&#45;&gt;org_apache_geronimo_specs_geronimo_jta_1_1_spec</title>
<path fill="none" stroke="green" d="M491.02,-148.937C539.502,-138.196 602.175,-124.312 652.384,-113.189"/>
<polygon fill="green" stroke="green" points="653.245,-116.583 662.251,-111.003 651.731,-109.749 653.245,-116.583"/>
</g>
<!-- org_apache_geronimo_specs_geronimo_annotation_1_1_spec -->
<g id="node24" class="node"><title>org_apache_geronimo_specs_geronimo_annotation_1_1_spec</title>
<polygon fill="#3182bd" stroke="black" points="96.5,-75 96.5,-111 347.5,-111 347.5,-75 96.5,-75"/>
<text text-anchor="middle" x="222" y="-100.1" font-family="Arial" font-size="8.00">Annotation 1.1</text>
<polyline fill="none" stroke="black" points="96.5,-93 347.5,-93 "/>
<text text-anchor="middle" x="222" y="-82.1" font-family="Arial" font-size="8.00">org.apache.geronimo.specs.geronimo&#45;annotation_1.1_spec(1.0.1)</text>
</g>
<!-- org_eclipse_jetty_aggregate_jetty_all_server&#45;&gt;org_apache_geronimo_specs_geronimo_annotation_1_1_spec -->
<g id="edge33" class="edge"><title>org_eclipse_jetty_aggregate_jetty_all_server&#45;&gt;org_apache_geronimo_specs_geronimo_annotation_1_1_spec</title>
<path fill="none" stroke="green" d="M368.499,-148.937C341.1,-138.663 306.031,-125.511 277.073,-114.652"/>
<polygon fill="green" stroke="green" points="278.099,-111.299 267.507,-111.065 275.641,-117.854 278.099,-111.299"/>
</g>
<!-- javax_mail -->
<g id="node25" class="node"><title>javax_mail</title>
<polygon fill="#3182bd" stroke="black" points="365.5,-75 365.5,-111 462.5,-111 462.5,-75 365.5,-75"/>
<text text-anchor="middle" x="414" y="-100.1" font-family="Arial" font-size="8.00">JavaMail API (compat)</text>
<polyline fill="none" stroke="black" points="365.5,-93 462.5,-93 "/>
<text text-anchor="middle" x="414" y="-82.1" font-family="Arial" font-size="8.00">javax.mail(1.4.4)</text>
</g>
<!-- org_eclipse_jetty_aggregate_jetty_all_server&#45;&gt;javax_mail -->
<g id="edge35" class="edge"><title>org_eclipse_jetty_aggregate_jetty_all_server&#45;&gt;javax_mail</title>
<path fill="none" stroke="green" d="M414,-148.937C414,-140.807 414,-130.876 414,-121.705"/>
<polygon fill="green" stroke="green" points="417.5,-121.441 414,-111.441 410.5,-121.441 417.5,-121.441"/>
</g>
<!-- org_objectweb_asm_all -->
<g id="node26" class="node"><title>org_objectweb_asm_all</title>
<polygon fill="#3182bd" stroke="black" points="480.5,-75 480.5,-111 609.5,-111 609.5,-75 480.5,-75"/>
<text text-anchor="middle" x="545" y="-100.1" font-family="Arial" font-size="8.00">ASM all classes with debug info</text>
<polyline fill="none" stroke="black" points="480.5,-93 609.5,-93 "/>
<text text-anchor="middle" x="545" y="-82.1" font-family="Arial" font-size="8.00">org.objectweb.asm.all(4.1)</text>
</g>
<!-- org_eclipse_jetty_aggregate_jetty_all_server&#45;&gt;org_objectweb_asm_all -->
<g id="edge36" class="edge"><title>org_eclipse_jetty_aggregate_jetty_all_server&#45;&gt;org_objectweb_asm_all</title>
<path fill="none" stroke="green" d="M445.045,-148.937C462.942,-139.101 485.636,-126.627 504.876,-116.053"/>
<polygon fill="green" stroke="green" points="506.646,-119.074 513.724,-111.19 503.274,-112.939 506.646,-119.074"/>
</g>
<!-- lucene_analyzers_common&#45;&gt;lucene_core -->
<g id="edge38" class="edge"><title>lucene_analyzers_common&#45;&gt;lucene_core</title>
<path fill="none" stroke="green" d="M1608.21,-185.001C1628.42,-192.48 1653.04,-200.274 1676,-204 1760.67,-217.74 3135.99,-221.306 3220,-204 3234.75,-200.963 3250.08,-195.279 3263.64,-189.263"/>
<polygon fill="green" stroke="green" points="3265.11,-192.441 3272.72,-185.072 3262.18,-186.085 3265.11,-192.441"/>
</g>
<!-- org_apache_felix_eventadmin -->
<g id="node28" class="node"><title>org_apache_felix_eventadmin</title>
<polygon fill="#9ecae1" stroke="black" points="1693,-75 1693,-111 1833,-111 1833,-75 1693,-75"/>
<text text-anchor="middle" x="1763" y="-100.1" font-family="Arial" font-size="8.00">Apache Felix EventAdmin</text>
<polyline fill="none" stroke="black" points="1693,-93 1833,-93 "/>
<text text-anchor="middle" x="1763" y="-82.1" font-family="Arial" font-size="8.00">org.apache.felix.eventadmin(1.3.2)</text>
</g>
<!-- org_ops4j_pax_logging_pax_logging_api&#45;&gt;org_apache_felix_eventadmin -->
<g id="edge43" class="edge"><title>org_ops4j_pax_logging_pax_logging_api&#45;&gt;org_apache_felix_eventadmin</title>
<path fill="none" stroke="#3182bd" d="M1757.16,-148.937C1756.3,-140.807 1756.05,-130.876 1756.41,-121.705"/>
<polygon fill="#3182bd" stroke="#3182bd" points="1759.92,-121.658 1757.12,-111.441 1752.94,-121.176 1759.92,-121.658"/>
</g>
<!-- lucene_grouping&#45;&gt;lucene_queries -->
<g id="edge39" class="edge"><title>lucene_grouping&#45;&gt;lucene_queries</title>
<path fill="none" stroke="green" d="M849.14,-185.082C865.974,-192.527 886.544,-200.272 906,-204 1004.81,-222.935 2618.26,-223.306 2717,-204 2732.65,-200.94 2749.01,-195.178 2763.47,-189.097"/>
<polygon fill="green" stroke="green" points="2764.91,-192.288 2772.68,-185.079 2762.11,-185.872 2764.91,-192.288"/>
</g>
<!-- lucene_grouping&#45;&gt;lucene_core -->
<g id="edge40" class="edge"><title>lucene_grouping&#45;&gt;lucene_core</title>
<path fill="none" stroke="green" d="M849.14,-185.082C865.974,-192.527 886.544,-200.272 906,-204 969.129,-216.097 3157.04,-216.968 3220,-204 3234.75,-200.963 3250.08,-195.279 3263.64,-189.263"/>
<polygon fill="green" stroke="green" points="3265.11,-192.441 3272.72,-185.072 3262.18,-186.085 3265.11,-192.441"/>
</g>
<!-- lucene_highlighter&#45;&gt;lucene_core -->
<g id="edge41" class="edge"><title>lucene_highlighter&#45;&gt;lucene_core</title>
<path fill="none" stroke="green" d="M3014.77,-185.087C3032.35,-192.532 3053.79,-200.277 3074,-204 3137.81,-215.758 3156.45,-217.092 3220,-204 3234.75,-200.963 3250.08,-195.279 3263.64,-189.263"/>
<polygon fill="green" stroke="green" points="3265.11,-192.441 3272.72,-185.072 3262.18,-186.085 3265.11,-192.441"/>
</g>
<!-- lucene_memory -->
<g id="node27" class="node"><title>lucene_memory</title>
<polygon fill="#3182bd" stroke="black" points="3067,-75 3067,-111 3215,-111 3215,-75 3067,-75"/>
<text text-anchor="middle" x="3141" y="-100.1" font-family="Arial" font-size="8.00">Apache Lucene :: Memory</text>
<polyline fill="none" stroke="black" points="3067,-93 3215,-93 "/>
<text text-anchor="middle" x="3141" y="-82.1" font-family="Arial" font-size="8.00">lucene&#45;memory(4.0.0.1&#45;SNAPSHOT)</text>
</g>
<!-- lucene_highlighter&#45;&gt;lucene_memory -->
<g id="edge42" class="edge"><title>lucene_highlighter&#45;&gt;lucene_memory</title>
<path fill="none" stroke="green" d="M3015.87,-148.937C3038.86,-138.841 3068.18,-125.968 3092.66,-115.221"/>
<polygon fill="green" stroke="green" points="3094.38,-118.29 3102.13,-111.065 3091.57,-111.88 3094.38,-118.29"/>
</g>
<!-- org_apache_servicemix_bundles_ehcache&#45;&gt;org_apache_geronimo_specs_geronimo_servlet_3_0_spec -->
<g id="edge45" class="edge"><title>org_apache_servicemix_bundles_ehcache&#45;&gt;org_apache_geronimo_specs_geronimo_servlet_3_0_spec</title>
<path fill="none" stroke="#3182bd" d="M1193,-111.441C1193,-119.625 1193,-129.572 1193,-138.719"/>
<polygon fill="#3182bd" stroke="#3182bd" points="1189.5,-138.937 1193,-148.937 1196.5,-138.937 1189.5,-138.937"/>
</g>
<!-- org_apache_servicemix_bundles_ehcache&#45;&gt;org_ops4j_pax_logging_pax_logging_api -->
<g id="edge44" class="edge"><title>org_apache_servicemix_bundles_ehcache&#45;&gt;org_ops4j_pax_logging_pax_logging_api</title>
<path fill="none" stroke="#3182bd" d="M1287.69,-102.765C1381.32,-111.894 1528.85,-127.523 1666.54,-147.992"/>
<polygon fill="#3182bd" stroke="#3182bd" points="1666.03,-151.454 1676.44,-149.474 1667.07,-144.531 1666.03,-151.454"/>
</g>
<!-- org_apache_geronimo_specs_geronimo_jms_1_1_spec -->
<g id="node29" class="node"><title>org_apache_geronimo_specs_geronimo_jms_1_1_spec</title>
<polygon fill="#9ecae1" stroke="black" points="1080,-1 1080,-37 1306,-37 1306,-1 1080,-1"/>
<text text-anchor="middle" x="1193" y="-26.1" font-family="Arial" font-size="8.00">geronimo&#45;jms_1.1_spec</text>
<polyline fill="none" stroke="black" points="1080,-19 1306,-19 "/>
<text text-anchor="middle" x="1193" y="-8.1" font-family="Arial" font-size="8.00">org.apache.geronimo.specs.geronimo&#45;jms_1.1_spec(1.1.1)</text>
</g>
<!-- org_apache_servicemix_bundles_ehcache&#45;&gt;org_apache_geronimo_specs_geronimo_jms_1_1_spec -->
<g id="edge46" class="edge"><title>org_apache_servicemix_bundles_ehcache&#45;&gt;org_apache_geronimo_specs_geronimo_jms_1_1_spec</title>
<path fill="none" stroke="#3182bd" d="M1193,-74.937C1193,-66.8072 1193,-56.8761 1193,-47.7047"/>
<polygon fill="#3182bd" stroke="#3182bd" points="1196.5,-47.4406 1193,-37.4407 1189.5,-47.4407 1196.5,-47.4406"/>
</g>
<!-- lucene_memory&#45;&gt;lucene_core -->
<g id="edge47" class="edge"><title>lucene_memory&#45;&gt;lucene_core</title>
<path fill="none" stroke="#3182bd" d="M3180.11,-111.065C3203.35,-121.206 3233.01,-134.149 3257.7,-144.924"/>
<polygon fill="#3182bd" stroke="#3182bd" points="3256.33,-148.145 3266.9,-148.937 3259.13,-141.73 3256.33,-148.145"/>
</g>
<!-- org_apache_felix_eventadmin&#45;&gt;org_ops4j_pax_logging_pax_logging_api -->
<g id="edge48" class="edge"><title>org_apache_felix_eventadmin&#45;&gt;org_ops4j_pax_logging_pax_logging_api</title>
<path fill="none" stroke="#9ecae1" d="M1768.88,-111.441C1769.72,-119.625 1769.95,-129.572 1769.57,-138.719"/>
<polygon fill="#9ecae1" stroke="#9ecae1" points="1766.06,-138.713 1768.84,-148.937 1773.04,-139.212 1766.06,-138.713"/>
</g>
<!-- org_apache_felix_configadmin -->
<g id="node30" class="node"><title>org_apache_felix_configadmin</title>
<polygon fill="#deebf7" stroke="black" points="1770,-1 1770,-37 1936,-37 1936,-1 1770,-1"/>
<text text-anchor="middle" x="1853" y="-26.1" font-family="Arial" font-size="8.00">Apache Felix Configuration Admin Service</text>
<polyline fill="none" stroke="black" points="1770,-19 1936,-19 "/>
<text text-anchor="middle" x="1853" y="-8.1" font-family="Arial" font-size="8.00">org.apache.felix.configadmin(1.6.0)</text>
</g>
<!-- org_apache_felix_eventadmin&#45;&gt;org_apache_felix_configadmin -->
<g id="edge49" class="edge"><title>org_apache_felix_eventadmin&#45;&gt;org_apache_felix_configadmin</title>
<path fill="none" stroke="#9ecae1" d="M1784.33,-74.937C1796.01,-65.5902 1810.67,-53.8625 1823.44,-43.6456"/>
<polygon fill="#9ecae1" stroke="#9ecae1" points="1825.89,-46.1701 1831.51,-37.19 1821.52,-40.704 1825.89,-46.1701"/>
</g>
<!-- org_apache_felix_metatype -->
<g id="node31" class="node"><title>org_apache_felix_metatype</title>
<polygon fill="#deebf7" stroke="black" points="1613.5,-1 1613.5,-37 1744.5,-37 1744.5,-1 1613.5,-1"/>
<text text-anchor="middle" x="1679" y="-26.1" font-family="Arial" font-size="8.00">Apache Felix Metatype Service</text>
<polyline fill="none" stroke="black" points="1613.5,-19 1744.5,-19 "/>
<text text-anchor="middle" x="1679" y="-8.1" font-family="Arial" font-size="8.00">org.apache.felix.metatype(1.0.6)</text>
</g>
<!-- org_apache_felix_eventadmin&#45;&gt;org_apache_felix_metatype -->
<g id="edge50" class="edge"><title>org_apache_felix_eventadmin&#45;&gt;org_apache_felix_metatype</title>
<path fill="none" stroke="#9ecae1" d="M1743.09,-74.937C1732.29,-65.6792 1718.77,-54.0857 1706.93,-43.9379"/>
<polygon fill="#9ecae1" stroke="#9ecae1" points="1708.93,-41.0406 1699.06,-37.19 1704.37,-46.3554 1708.93,-41.0406"/>
</g>
<!-- org_apache_felix_configadmin&#45;&gt;org_ops4j_pax_logging_pax_logging_api -->
<g id="edge51" class="edge"><title>org_apache_felix_configadmin&#45;&gt;org_ops4j_pax_logging_pax_logging_api</title>
<path fill="none" stroke="#deebf7" d="M1854.99,-37.2982C1856.37,-56.8776 1855.93,-89.0296 1842,-112 1834.23,-124.812 1822.13,-135.298 1809.72,-143.508"/>
<polygon fill="#deebf7" stroke="#deebf7" points="1807.78,-140.59 1801.12,-148.829 1811.47,-146.542 1807.78,-140.59"/>
</g>
<!-- org_apache_felix_metatype&#45;&gt;org_ops4j_pax_logging_pax_logging_api -->
<g id="edge52" class="edge"><title>org_apache_felix_metatype&#45;&gt;org_ops4j_pax_logging_pax_logging_api</title>
<path fill="none" stroke="#deebf7" d="M1675.64,-37.1868C1672.76,-56.6639 1670.9,-88.7223 1684,-112 1691.28,-124.939 1703.11,-135.425 1715.42,-143.594"/>
<polygon fill="#deebf7" stroke="#deebf7" points="1713.62,-146.598 1723.97,-148.881 1717.31,-140.644 1713.62,-146.598"/>
</g>
</g>
</svg>
